<?xml version="1.0" standalone="no"?>
<!DOCTYPE svg PUBLIC "-//W3C//DTD SVG 20010904//EN"
 "http://www.w3.org/TR/2001/REC-SVG-20010904/DTD/svg10.dtd">
<svg version="1.0" xmlns="http://www.w3.org/2000/svg"
 width="24.000000pt" height="24.000000pt" viewBox="0 0 24.000000 24.000000"
 preserveAspectRatio="xMidYMid meet">

<g transform="translate(0.000000,24.000000) scale(0.100000,-0.100000)"
fill="#000000" stroke="none">
<path d="M30 120 l0 -120 90 0 c50 0 90 3 90 8 0 4 -38 6 -85 4 l-85 -3 0 100
0 101 59 0 c33 0 63 -4 66 -10 3 -5 16 -10 27 -10 21 0 21 0 -2 25 -21 22 -32
25 -92 25 l-68 0 0 -120z m103 103 c-18 -2 -48 -2 -65 0 -18 2 -4 4 32 4 36 0
50 -2 33 -4z m52 -13 c3 -5 1 -10 -4 -10 -6 0 -11 5 -11 10 0 6 2 10 4 10 3 0
8 -4 11 -10z"/>
<path d="M106 34 c-5 -14 -4 -15 8 -5 10 8 16 9 19 1 3 -6 4 -5 3 2 -4 19 -23
20 -30 2z"/>
</g>
</svg>
